HIERARCHY
ROOT Hips
{
	OFFSET 0.00000 0.00000 0.00000
	CHANNELS 6 Xposition Yposition Zposition Zrotation Yrotation Xrotation 
	JOINT LHipJoint
	{
		OFFSET 0 0 0
		CHANNELS 3 Zrotation Yrotation Xrotation
		JOINT LeftHip
		{
			OFFSET 3.13874 -1.57224 1.49786
			CHANNELS 3 Zrotation Yrotation Xrotation
			JOINT LeftKnee
			{
				OFFSET 2.10955 -5.79594 0.00000
				CHANNELS 3 Zrotation Yrotation Xrotation
				JOINT LeftAnkle
				{
					OFFSET 2.41843 -6.64458 0.00000
					CHANNELS 3 Zrotation Yrotation Xrotation
					JOINT LeftToe
					{
						OFFSET 0.04713 -0.12948 1.66229
						CHANNELS 3 Zrotation Yrotation Xrotation
						End Site
						{
							OFFSET 0.00000 -0.00000 0.85167
						}
					}
				}
			}
		}
	}
	JOINT RHipJoint
	{
		OFFSET 0 0 0
		CHANNELS 3 Zrotation Yrotation Xrotation
		JOINT RightHip
		{
			OFFSET -3.13988 -1.57224 1.49786
			CHANNELS 3 Zrotation Yrotation Xrotation
			JOINT RightKnee
			{
				OFFSET -2.15006 -5.90725 0.00000
				CHANNELS 3 Zrotation Yrotation Xrotation
				JOINT RightAnkle
				{
					OFFSET -2.34496 -6.44273 0.00000
					CHANNELS 3 Zrotation Yrotation Xrotation
					JOINT RightToe
					{
						OFFSET -0.08699 -0.23900 1.55223
						CHANNELS 3 Zrotation Yrotation Xrotation
						End Site
						{
							OFFSET -0.00000 -0.00000 0.80281
						}
					}
				}
			}
		}
	}
	JOINT lowerback
	{
		OFFSET 0 0 0
		CHANNELS 3 Zrotation Yrotation Xrotation
		JOINT Chest
		{
			OFFSET 0.01292 1.96517 -0.16495
			CHANNELS 3 Zrotation Yrotation Xrotation
			JOINT Chest2
			{
				OFFSET 0.02122 1.88666 0.19706
				CHANNELS 3 Zrotation Yrotation Xrotation
				JOINT lowerneck
				{
					OFFSET 0 0 0
					CHANNELS 3 Zrotation Yrotation Xrotation
					JOINT Neck
					{
						OFFSET -0.01683 1.81591 0.07903
						CHANNELS 3 Zrotation Yrotation Xrotation
						JOINT Head
						{
							OFFSET 0.00815 1.74013 -0.47700
							CHANNELS 3 Zrotation Yrotation Xrotation
							End Site
							{
								OFFSET -0.00204 1.83225 -0.16933
							}
						}
					}
				}
				JOINT LeftCollar
				{
					OFFSET 0 0 0
					CHANNELS 3 Zrotation Yrotation Xrotation
					JOINT LeftShoulder
					{
						OFFSET 3.38482 1.41533 0.19802
CHANNELS 3 Zrotation Xrotation Yrotation
						JOINT LeftElbow
						{
OFFSET 0 -4.327120 0.000000
CHANNELS 3 Zrotation Xrotation Yrotation
							JOINT LeftWrist
							{
OFFSET 0 -3.285870 -0.000000
CHANNELS 3 Zrotation Xrotation Yrotation
								JOINT lhand
								{
									OFFSET 0 0 0
CHANNELS 3 Zrotation Xrotation Yrotation
									JOINT LFingers
									{
OFFSET 0 -0.433160 -0.000000
CHANNELS 3 Zrotation Xrotation Yrotation
										End Site
										{
OFFSET 0 -0.349220 -0.000000
										}
									}
								}
								JOINT LThumb
								{
OFFSET 0 0.000000 0.000000
CHANNELS 3 Zrotation Xrotation Yrotation
									End Site
									{
OFFSET 0 -0.354560 0.354560
									}
								}
							}
						}
					}
				}
				JOINT RightCollar
				{
					OFFSET 0 0 0
					CHANNELS 3 Zrotation Yrotation Xrotation
					JOINT RightShoulder
					{
						OFFSET -3.09725 1.62858 -0.14144
CHANNELS 3 Zrotation Xrotation Yrotation
						JOINT RightElbow
						{
OFFSET 0 -4.291040 0.000000
CHANNELS 3 Zrotation Xrotation Yrotation
							JOINT RightWrist
							{
OFFSET 0 -3.227200 -0.000000
CHANNELS 3 Zrotation Xrotation Yrotation
								JOINT rhand
								{
									OFFSET 0 0 0
CHANNELS 3 Zrotation Xrotation Yrotation
									JOINT RFingers
									{
OFFSET 0 -0.543620 -0.000000
CHANNELS 3 Zrotation Xrotation Yrotation
										End Site
										{
OFFSET 0 -0.438280 -0.000000
										}
									}
								}
								JOINT RThumb
								{
OFFSET 0 0.000000 0.000000
CHANNELS 3 Zrotation Xrotation Yrotation
									End Site
									{
OFFSET 0 -0.444970 0.444970
									}
								}
							}
						}
					}
				}
			}
		}
	}
}
MOTION
Frames: 9
Frame Time: 0.008333333333333333
3.113000 15.977600 5.476200 178.370000 -50.848200 -169.141000 0.000000 0.000000 0.000000 -38.363400 -37.595600 18.091200 0.068500 -1.688900 -4.646800 5.654100 -6.359100 -44.105700 0.860700 -5.916100 -16.541300 0.000000 0.000000 0.000000 13.463400 18.615100 -0.432700 -0.092400 -1.960500 5.396500 -1.690000 -7.708800 -28.374200 -0.087800 -1.910600 5.258700 -0.346300 2.838500 6.923500 -1.317100 3.250700 -9.872800 -1.856200 1.297100 -14.720300 4.932900 3.876900 -20.698500 0.588100 1.685600 39.757500 -0.461200 0.841000 18.591000 0.000000 -0.000000 0.000000 10.819500 10.360600 -28.755800 21.123900 -31.972700 6.115400 47.577400 38.387800 -34.663500 0.000000 0.000000 0.000000 -7.125000 0.000000 0.000000 27.965000 74.133700 -19.625900 0.000000 -0.000000 0.000000 -14.786800 19.813200 35.382200 -18.540000 -28.843100 -4.806900 -36.311000 9.405500 24.679100 0.000000 0.000000 0.000000 7.125000 0.000000 -0.000000 -8.067500 59.492100 2.866600
3.114798 15.977032 5.470899 178.693730 -50.551259 -169.420240 0.000000 0.000000 0.000000 -38.175220 -37.578940 18.201382 0.067648 -1.678204 -4.617267 5.780279 -6.094626 -44.667115 0.959049 -6.235286 -17.468851 0.000000 0.000000 0.000000 13.702789 18.657128 -0.572036 -0.095524 -1.993062 5.486425 -1.634815 -7.851449 -28.090037 -0.109666 -2.134844 5.878424 -0.146856 2.903530 7.171977 -1.290690 3.368454 -9.936505 -1.977741 1.326823 -14.943219 4.625546 3.818591 -20.501990 1.105499 1.575608 39.285252 -0.184421 0.839296 18.244363 0.000000 0.000000 0.000000 10.910277 11.237793 -27.828911 21.002549 -31.831281 6.051317 46.197668 37.639909 -34.901754 0.000000 0.000000 0.000000 -7.125000 0.000000 0.000000 24.723066 73.980922 -17.201147 0.000000 0.000000 0.000000 -14.966650 19.361966 36.360204 -19.069042 -29.504095 -5.064937 -34.374302 7.336471 23.477893 0.000000 0.000000 0.000000 7.125000 0.000000 0.000000 -5.907505 57.639648 1.837859
3.126243 15.978608 5.477031 178.955831 -49.374559 -169.646785 0.000000 0.000000 0.000000 -38.725055 -38.460973 19.232853 0.066618 -1.664828 -4.580320 6.379205 -6.536013 -47.026184 0.930035 -6.143263 -17.200647 0.000000 0.000000 0.000000 13.631897 18.765160 -1.641326 -0.126960 -2.294286 6.319812 -1.498263 -7.505721 -26.906199 -0.118670 -2.220739 6.116057 -0.179007 3.281789 7.482706 -1.300275 3.882502 -9.946173 -2.093744 1.566972 -15.143898 4.346595 3.739918 -20.330311 1.598516 1.455701 38.675995 0.069494 0.840986 17.836545 0.000000 0.000000 0.000000 11.040263 11.842843 -26.847719 20.777234 -31.567322 5.932930 43.894950 35.807728 -34.647789 0.000000 0.000000 0.000000 -7.125000 0.000000 0.000000 19.509403 72.985095 -13.096190 0.000000 0.000000 0.000000 -15.064776 18.720759 37.190034 -19.562001 -30.110519 -5.310113 -32.786292 5.918998 22.561156 0.000000 0.000000 0.000000 7.125000 0.000000 0.000000 -4.231063 56.229754 1.172633
3.125921 15.979472 5.474021 178.874995 -48.883952 -169.544361 0.000000 0.000000 0.000000 -39.108847 -38.911898 19.678209 0.064149 -1.634413 -4.496325 6.634069 -6.902729 -47.986295 0.878707 -5.975589 -16.713715 0.000000 0.000000 0.000000 13.452846 18.779144 -2.050702 -0.136242 -2.379140 6.554769 -1.442161 -7.232054 -26.323793 -0.096507 -2.000757 5.507813 -0.226774 3.449873 7.491161 -1.376840 4.095695 -9.935648 -2.195056 1.666709 -15.128612 4.067831 3.649782 -20.127702 2.072523 1.328736 38.056779 0.306422 0.836162 17.427587 0.000000 0.000000 0.000000 11.264797 12.455882 -26.081105 20.661584 -31.431146 5.872511 41.721179 34.003230 -34.684658 0.000000 0.000000 0.000000 -7.125000 0.000000 0.000000 15.041386 72.329319 -9.840305 0.000000 0.000000 0.000000 -15.131982 18.165765 38.219002 -20.154157 -30.826538 -5.610613 -31.659578 5.174159 22.351442 0.000000 0.000000 0.000000 7.125000 0.000000 0.000000 -3.005595 55.738882 0.794169
3.121511 15.981330 5.473929 178.805249 -48.524843 -169.461813 0.000000 0.000000 0.000000 -39.290470 -39.008702 19.818352 0.062835 -1.617734 -4.450355 6.733442 -7.491880 -48.302441 0.789496 -5.670184 -15.830860 0.000000 0.000000 0.000000 13.289522 18.619779 -2.361566 -0.140445 -2.415156 6.654456 -1.398880 -6.798283 -25.724267 -0.072206 -1.729070 4.757658 -0.117582 3.588437 7.533572 -1.492241 4.287173 -9.930119 -2.424990 1.735656 -15.124938 3.825280 3.489933 -19.937718 2.373904 1.151646 37.438754 0.444096 0.789909 17.035462 0.000000 0.000000 0.000000 11.501456 13.059900 -25.290074 20.472141 -31.206795 5.774039 39.912883 32.222144 -34.609104 0.000000 0.000000 0.000000 -7.125000 0.000000 0.000000 11.611409 71.660871 -7.408594 0.000000 0.000000 0.000000 -15.161514 17.649056 39.256508 -20.744820 -31.528060 -5.916521 -30.652202 4.512069 22.291327 0.000000 0.000000 0.000000 7.125000 0.000000 0.000000 -1.905459 55.449565 0.490235
3.118568 15.981214 5.476519 178.937112 -48.129992 -169.512693 0.000000 0.000000 0.000000 -39.185764 -38.947182 19.751827 0.061867 -1.605172 -4.415616 6.781168 -8.029801 -48.426435 0.713027 -5.395048 -15.039176 0.000000 0.000000 0.000000 13.278085 18.501279 -2.741925 -0.146797 -2.469012 6.803708 -1.360764 -6.274654 -25.105651 -0.049504 -1.428765 3.929639 0.097962 3.730073 7.589008 -1.544398 4.509832 -9.909998 -2.649852 1.813728 -15.105526 3.432799 3.300091 -19.484010 2.820918 1.005843 36.330129 0.666015 0.765287 16.335519 0.000000 0.000000 0.000000 11.598873 13.652729 -24.195408 20.097552 -30.758985 5.581502 38.697440 30.013005 -33.254661 0.000000 0.000000 0.000000 -7.125000 0.000000 0.000000 9.851118 69.789137 -5.874385 0.000000 0.000000 0.000000 -15.246045 17.046376 40.251371 -21.288357 -32.162210 -6.203241 -28.493535 3.047679 21.568306 0.000000 0.000000 0.000000 7.125000 0.000000 0.000000 0.252438 54.202487 -0.036974
3.119259 15.980660 5.477944 179.146957 -47.696127 -169.616497 0.000000 0.000000 0.000000 -38.939438 -38.830584 19.607009 0.061532 -1.600885 -4.403894 6.858516 -8.031528 -48.724443 0.729112 -5.454936 -15.210984 0.000000 0.000000 0.000000 13.354982 18.562434 -3.133205 -0.156614 -2.549394 7.026646 -1.340412 -5.683465 -24.587934 -0.033620 -1.178964 3.241481 0.278778 3.877520 7.711040 -1.539199 4.741369 -9.925015 -2.801137 1.900298 -15.178141 3.260994 3.097280 -19.254774 2.738899 0.867743 35.855547 0.626991 0.681031 16.031068 0.000000 0.000000 0.000000 11.634469 14.393924 -23.009942 19.748509 -30.337691 5.403943 37.273596 28.014497 -32.356073 0.000000 0.000000 0.000000 -7.125000 0.000000 0.000000 7.824962 68.357697 -4.412278 0.000000 0.000000 0.000000 -15.376580 16.478583 41.220188 -21.806778 -32.756757 -6.481548 -27.777185 2.554131 21.465657 0.000000 0.000000 0.000000 7.125000 0.000000 0.000000 1.000084 53.938808 -0.219884
3.121027 15.980500 5.477261 179.333062 -47.299915 -169.723491 0.000000 0.000000 0.000000 -38.739158 -38.765563 19.528383 0.060811 -1.591610 -4.378234 6.971937 -7.858924 -49.178944 0.781784 -5.644061 -15.755320 0.000000 0.000000 0.000000 13.450518 18.730160 -3.435059 -0.166811 -2.630698 7.252275 -1.346280 -5.144347 -24.316004 -0.026471 -1.049825 2.885935 0.421210 4.001097 7.909610 -1.516035 4.935843 -9.971210 -2.912790 1.970742 -15.344051 3.278805 3.045530 -19.324453 2.512185 0.881377 35.818897 0.529236 0.659615 16.029324 0.000000 0.000000 0.000000 11.676317 15.165522 -21.763455 19.390722 -29.900578 5.224517 35.472720 26.408001 -31.905161 0.000000 0.000000 0.000000 -7.125000 0.000000 0.000000 5.250758 67.309999 -2.838986 0.000000 0.000000 0.000000 -15.508077 15.943603 42.164580 -22.227298 -33.232287 -6.710312 -27.804292 2.440221 21.470585 0.000000 0.000000 0.000000 7.125000 0.000000 0.000000 0.972627 53.949623 -0.214041
3.121070 15.980042 5.475727 179.420614 -46.937680 -169.767290 0.000000 0.000000 0.000000 -38.766133 -38.899048 19.648625 0.058911 -1.565915 -4.307383 7.104431 -8.084000 -49.659967 0.753912 -5.543462 -15.465887 0.000000 0.000000 0.000000 13.480040 18.871480 -3.653128 -0.174422 -2.690031 7.416923 -1.364224 -4.712313 -24.211075 -0.026217 -1.044826 2.872208 0.514398 4.101962 8.065769 -1.493660 5.092425 -9.998670 -2.986410 2.030517 -15.465322 3.287826 3.071933 -19.465704 2.387663 0.965557 35.864297 0.492853 0.680752 16.086015 0.000000 0.000000 0.000000 11.712921 15.810363 -20.418206 18.931339 -29.331896 4.997840 33.507875 24.960441 -31.469353 0.000000 0.000000 0.000000 -7.125000 0.000000 0.000000 2.609189 66.246516 -1.355728 0.000000 0.000000 0.000000 -15.649047 15.384930 43.071133 -22.552742 -33.595641 -6.889391 -27.778692 2.306627 21.308248 0.000000 0.000000 0.000000 7.125000 0.000000 0.000000 0.960038 53.767850 -0.206930
